<svg xmlns="http://www.w3.org/2000/svg" width="64.847" height="107.297" viewBox="0 0 71.847 118.297"><defs><style>.a{fill:#edeef4;}</style></defs><path class="a" d="M-4379.267-1392.5a11.15,11.15,0,0,1-9.081-10.9v-76.85a11.1,11.1,0,0,1,3.3-7.867l19.638-19.414a11.3,11.3,0,0,1,7.936-3.264h40.972v7.406h-34.394v24.087a5.56,5.56,0,0,1-5.619,5.538h-24.344v70.363a3.736,3.736,0,0,0,3.746,3.7h60.611v7.2Zm19.147-109.782-19.637,19.414a3.621,3.621,0,0,0-.983,1.713h22.354v-22.1A3.705,3.705,0,0,0-4360.12-1502.281Zm-11.37,95.174a1.862,1.862,0,0,1-1.874-1.851v-3.7a1.862,1.862,0,0,1,1.874-1.851h18.729a1.862,1.862,0,0,1,1.873,1.851v3.7a1.862,1.862,0,0,1-1.873,1.851Zm2.406-22.219a4.024,4.024,0,0,1-4.283-3.7v-22.22a4.024,4.024,0,0,1,4.283-3.7h51.374a4.916,4.916,0,0,1,1.209.15v29.326a4.91,4.91,0,0,1-1.209.15Zm3.212-7.406h44.952v-14.813h-44.952Zm24.349-37.032a1.862,1.862,0,0,1-1.874-1.851v-3.7a1.863,1.863,0,0,1,1.874-1.851h25.022v7.406Zm0-14.812a1.862,1.862,0,0,1-1.874-1.851v-3.7a1.863,1.863,0,0,1,1.874-1.851h25.022v7.406Z" transform="translate(4388.348 1510.796)"/></svg>