<svg xmlns="http://www.w3.org/2000/svg" width="89.499" height="100" viewBox="0 0 101.499 112"><defs><style>.a{fill:#edeef4;}</style></defs><g transform="translate(-828 -272.5)"><path class="a" d="M-4302.1-1343.5a1.752,1.752,0,0,1-1.755-1.75v-7a1.752,1.752,0,0,1,1.755-1.75h5.266v-35h-1.755a8.771,8.771,0,0,0-8.776,8.749v6.126a16.667,16.667,0,0,1-16.674,16.625,16.667,16.667,0,0,1-16.673-16.625v-22.765A17.446,17.446,0,0,1-4353-1413.5V-1424a3.5,3.5,0,0,1,3.511-3.5h3.509V-1438a3.5,3.5,0,0,1,3.511-3.5,3.5,3.5,0,0,1,3.51,3.5v10.5h7.02V-1438a3.5,3.5,0,0,1,3.511-3.5,3.5,3.5,0,0,1,3.51,3.5v10.5h3.511a3.5,3.5,0,0,1,3.511,3.5v10.5a17.449,17.449,0,0,1-12.287,16.61v22.765a6.143,6.143,0,0,0,6.144,6.126,6.142,6.142,0,0,0,6.144-6.126v-6.126a19.3,19.3,0,0,1,19.307-19.249h1.755V-1445a10.515,10.515,0,0,1,10.53-10.5h34.8v10.5h-34.8v91h34.8v10.5Zm-40.369-70a7.019,7.019,0,0,0,7.021,7,7.019,7.019,0,0,0,7.02-7v-3.5h-14.041Z" transform="translate(5181 1728)"/><path class="a" d="M113.642,146.524h8.176l-1.693,10.564a1.508,1.508,0,0,0,1.609,1.78,1.713,1.713,0,0,0,1.431-.721L136.074,139a1.457,1.457,0,0,0-1.431-2.172h-7.95l1.6-7a1.5,1.5,0,0,0-1.6-1.819h-9.368a1.6,1.6,0,0,0-1.639,1.256L112,144.889A1.531,1.531,0,0,0,113.642,146.524Z" transform="translate(792.867 179.566)"/></g></svg>