<svg xmlns="http://www.w3.org/2000/svg" width="103.896" height="83.398" viewBox="0 0 140.896 113.398"><defs><style>.a{fill:#edeef4;stroke:#edeef4;stroke-width:1.4px;}</style></defs><path class="a" d="M-4414.9-1376.7a12.584,12.584,0,0,1-8.9-3.648,12.3,12.3,0,0,1-3.689-8.8v-11.084a28.707,28.707,0,0,1,5-16.232,25.829,25.829,0,0,1,4.62-5.132,27.241,27.241,0,0,1,5.689-3.713,30.353,30.353,0,0,1,13.27-3.013,32.288,32.288,0,0,1,9.417,1.427,36.161,36.161,0,0,0,10.625,1.542,36.181,36.181,0,0,0,10.627-1.542,32.274,32.274,0,0,1,9.415-1.427,30.36,30.36,0,0,1,13.271,3.013,27.28,27.28,0,0,1,5.689,3.713,25.857,25.857,0,0,1,4.619,5.132,28.712,28.712,0,0,1,5,16.232v11.084a12.3,12.3,0,0,1-3.688,8.8,12.584,12.584,0,0,1-8.9,3.648Zm.008-34.7a19.78,19.78,0,0,0-3.429,11.158v11.084a3.406,3.406,0,0,0,3.42,3.382h72.064a3.412,3.412,0,0,0,3.4-2.972v-11.495a19.786,19.786,0,0,0-3.43-11.159c-3.351-4.922-9.314-7.86-15.956-7.86a26.206,26.206,0,0,0-7.456,1.213,42.719,42.719,0,0,1-12.586,1.755,42.778,42.778,0,0,1-12.583-1.753,26.327,26.327,0,0,0-7.485-1.215C-4405.578-1419.257-4411.543-1416.319-4414.894-1411.4Zm91.673,26.778h-.711l.139-.689a26.851,26.851,0,0,0,.392-6.243c0-.473,0-.99,0-1.561v-.576h35.4v9.07Zm5.6-33.143a20.814,20.814,0,0,0-5.9-.976,15.994,15.994,0,0,0-4.322.622l-.439.122-.225-.393c-.056-.1-.116-.212-.185-.343a23.883,23.883,0,0,0-4.777-6.118l-.6-.6.79-.332a25.146,25.146,0,0,1,9.761-2.05,27.055,27.055,0,0,1,7.873,1.192,30.163,30.163,0,0,0,8.842,1.282,30.159,30.159,0,0,0,8.842-1.282,27.056,27.056,0,0,1,7.873-1.192q1.05,0,2.092.084v9.14a16.9,16.9,0,0,0-2.092-.129,20.8,20.8,0,0,0-5.9.976,36.4,36.4,0,0,1-10.814,1.5A36.386,36.386,0,0,1-4317.62-1417.761Zm1.238-16.276a24.533,24.533,0,0,1-7.82-5.214,24.251,24.251,0,0,1-5.274-7.734,23.93,23.93,0,0,1-1.935-9.469,23.93,23.93,0,0,1,1.935-9.468,24.249,24.249,0,0,1,5.274-7.734,24.546,24.546,0,0,1,7.82-5.215,24.673,24.673,0,0,1,9.576-1.912,24.679,24.679,0,0,1,9.576,1.912,24.562,24.562,0,0,1,7.82,5.215q.74.732,1.411,1.517v31.37q-.669.784-1.411,1.517a24.549,24.549,0,0,1-7.82,5.214,24.679,24.679,0,0,1-9.576,1.913A24.674,24.674,0,0,1-4316.382-1434.037Zm-5.856-22.416a15.364,15.364,0,0,0,15.432,15.259,15.363,15.363,0,0,0,15.43-15.259,15.362,15.362,0,0,0-15.43-15.258A15.363,15.363,0,0,0-4322.238-1456.453Zm-67.771,22.108a28.507,28.507,0,0,1-9.093-6.059,28.154,28.154,0,0,1-6.128-8.991,27.866,27.866,0,0,1-2.248-11.016,27.862,27.862,0,0,1,2.248-11.015,28.158,28.158,0,0,1,6.128-8.992,28.519,28.519,0,0,1,9.093-6.06,28.749,28.749,0,0,1,11.14-2.221,28.756,28.756,0,0,1,11.141,2.221,28.5,28.5,0,0,1,9.092,6.06,28.152,28.152,0,0,1,6.128,8.992,27.87,27.87,0,0,1,2.247,11.015,27.874,27.874,0,0,1-2.247,11.016,28.147,28.147,0,0,1-6.128,8.991,28.492,28.492,0,0,1-9.092,6.059,28.739,28.739,0,0,1-11.141,2.222A28.732,28.732,0,0,1-4390.01-1434.345Zm-8.294-26.066a19.349,19.349,0,0,0,19.434,19.218,19.35,19.35,0,0,0,19.435-19.218,19.349,19.349,0,0,0-19.435-19.217A19.348,19.348,0,0,0-4398.3-1460.412Z" transform="translate(4428.195 1489.399)"/></svg>