<svg xmlns="http://www.w3.org/2000/svg" width="93.364" height="97.746" viewBox="0 0 115.364 119.746"><defs><style>.a{fill:#edeef4;}</style></defs><g transform="translate(0 0)"><g transform="translate(0 0)"><path class="a" d="M114.7,115.7H94.733a27.136,27.136,0,0,0-21.241,10.033l-21.727,27.3-36.211,9.52A20.533,20.533,0,0,0,0,182.2v13.3a20.8,20.8,0,0,0,21.046,20.534h3.111c3.743,13.86,18.47,22.167,32.906,18.574a26.464,26.464,0,0,0,19.345-18.574h38.9C115.594,216.264,114.7,115.7,114.7,115.7ZM50.259,226.025c-9.527,0-17.255-7.42-17.255-16.567s7.728-16.567,17.255-16.567,17.255,7.42,17.255,16.567C67.562,218.559,59.834,225.979,50.259,226.025Zm64.665-19.32H77.089c-1.6-14.234-14.971-24.5-29.8-22.914-12.589,1.307-22.5,10.873-23.866,22.914H21A11.237,11.237,0,0,1,9.673,195.5V182.2a11.069,11.069,0,0,1,8.409-10.687l37.864-9.94a4.754,4.754,0,0,0,2.576-1.68l22.65-28.514a17.448,17.448,0,0,1,13.561-6.347H114.87Z" transform="translate(0 -115.704)"/></g></g></svg>