<svg xmlns="http://www.w3.org/2000/svg" width="74.5" height="112.187" viewBox="0 0 84.5 122.187"><defs><style>.a{fill:#edeef4;}</style></defs><path class="a" d="M-4426-1420.045a48.941,48.941,0,0,1,9.215-28.638l-5.466-5.393a2.839,2.839,0,0,1,0-4.057l4.112-4.057a2.933,2.933,0,0,1,4.111,0l5.006,4.94a50.289,50.289,0,0,1,27.523-12.123v-11.765h-6.771a2.892,2.892,0,0,1-2.9-2.864v-5.728a2.891,2.891,0,0,1,2.9-2.863h25.153a2.891,2.891,0,0,1,2.9,2.863V-1484a2.892,2.892,0,0,1-2.9,2.864h-6.771v11.789a50.439,50.439,0,0,1,28.388,12.893v18.509a38.752,38.752,0,0,0-34.193-20.281c-21.38,0-38.7,17.087-38.7,38.183s17.318,38.184,38.7,38.184a38.753,38.753,0,0,0,34.193-20.281v18.511a50.5,50.5,0,0,1-34.193,13.225C-4403.482-1370.407-4426-1392.625-4426-1420.045Zm47.4,11.455a2.893,2.893,0,0,1-2.9-2.864v-32.456a2.892,2.892,0,0,1,2.9-2.863h5.805a2.892,2.892,0,0,1,2.9,2.863v32.456a2.892,2.892,0,0,1-2.9,2.864Z" transform="translate(4426 1492.594)"/></svg>