<svg xmlns="http://www.w3.org/2000/svg" width="258.055" height="59.984" viewBox="0 0 258.055 59.984"><defs><style>.a{fill:#fff;}</style></defs><g transform="translate(0.003 0)"><path class="a" d="M11.509,15.01H22.661V28.433a11.263,11.263,0,0,1-4.3,2.2,18.734,18.734,0,0,1-4.937.683,15.274,15.274,0,0,1-5.334-.9A10.844,10.844,0,0,1,3.839,27.6,13.423,13.423,0,0,1,1.017,22.7,21.688,21.688,0,0,1,0,15.649,19.329,19.329,0,0,1,1.216,8.4a13.643,13.643,0,0,1,3.2-4.849A12.122,12.122,0,0,1,8.82.838,15.6,15.6,0,0,1,13.933,0a23.539,23.539,0,0,1,4.408.375,20.85,20.85,0,0,1,3.086.815L20.347,6.15a12.078,12.078,0,0,0-2.4-.661,19.836,19.836,0,0,0-3.372-.242,9.83,9.83,0,0,0-3.372.573A6.612,6.612,0,0,0,8.533,7.649a8.662,8.662,0,0,0-1.741,3.24,16.222,16.222,0,0,0-.617,4.8,16.067,16.067,0,0,0,.6,4.673,8.992,8.992,0,0,0,1.675,3.218,6.612,6.612,0,0,0,2.579,1.873,7.8,7.8,0,0,0,3.064.6,8.53,8.53,0,0,0,2.2-.287,4.871,4.871,0,0,0,1.785-.838V19.264l-6.568-.683Z" transform="translate(0 0)"/><path class="a" d="M23.972,9.643a7.207,7.207,0,0,0-2.4-.463,3.879,3.879,0,0,0-2.491.793,3.835,3.835,0,0,0-1.344,2.05V25.909H12.18V4.4h4.408l.639,2.843H17.4a5.885,5.885,0,0,1,1.962-2.446A4.981,4.981,0,0,1,22.186,4a8,8,0,0,1,2.513.463Z" transform="translate(14.669 4.816)"/><path class="a" d="M36.656,24.187a10.844,10.844,0,0,1-3.482,1.741,15.142,15.142,0,0,1-4.673.705,9.037,9.037,0,0,1-7.56-3.042,13.092,13.092,0,0,1-2.4-8.331,11.946,11.946,0,0,1,2.689-8.508,9.918,9.918,0,0,1,7.56-2.843,11.792,11.792,0,0,1,3.174.441,7.229,7.229,0,0,1,2.733,1.411,6.965,6.965,0,0,1,1.918,2.777A10.557,10.557,0,0,1,37.34,12.7v1.94a12.156,12.156,0,0,1-.331,2.2H24.226a6.326,6.326,0,0,0,1.389,4.077,5.268,5.268,0,0,0,4.077,1.389,9.059,9.059,0,0,0,5.246-1.631Zm-7.935-15.8A3.857,3.857,0,0,0,25.5,9.706a6.612,6.612,0,0,0-1.256,3.5H32.16a5.466,5.466,0,0,0-.705-3.571A3.13,3.13,0,0,0,28.7,8.384" transform="translate(22.283 4.687)"/><path class="a" d="M46.416,24.187a10.778,10.778,0,0,1-3.482,1.741,15.142,15.142,0,0,1-4.673.705,9.037,9.037,0,0,1-7.56-3.042,13.092,13.092,0,0,1-2.4-8.331,11.946,11.946,0,0,1,2.689-8.508,9.918,9.918,0,0,1,7.56-2.843A11.792,11.792,0,0,1,41.7,4.35a7.251,7.251,0,0,1,2.733,1.411,6.987,6.987,0,0,1,1.94,2.777A10.513,10.513,0,0,1,47.1,12.7v1.94a12.156,12.156,0,0,1-.331,2.2H33.986a6.326,6.326,0,0,0,1.389,4.077,5.268,5.268,0,0,0,4.077,1.389A9.037,9.037,0,0,0,44.7,20.682Zm-7.935-15.8a3.857,3.857,0,0,0-3.218,1.322,6.612,6.612,0,0,0-1.256,3.5H41.92a5.444,5.444,0,0,0-.705-3.571,3.13,3.13,0,0,0-2.733-1.256" transform="translate(34.034 4.687)"/><path class="a" d="M51.682,26.029V13.8a7.251,7.251,0,0,0-.749-3.791A2.8,2.8,0,0,0,48.31,8.86a3.989,3.989,0,0,0-2.667.926,5.135,5.135,0,0,0-1.565,2.2V25.919H38.59V4.518H43l.639,2.843H43.9a9.3,9.3,0,0,1,2.6-2.4A7.714,7.714,0,0,1,50.514,3.9a8.53,8.53,0,0,1,2.821.441,4.783,4.783,0,0,1,2.2,1.411A6.612,6.612,0,0,1,56.8,8.529a17.434,17.434,0,0,1,.331,4.122V26.029Z" transform="translate(46.467 4.696)"/><path class="a" d="M72.428,14.773,73.068,8.8H72.8l-1.829,4.8L64.6,24.845H62.731L56.008,13.56,54.135,8.8h-.22l.86,5.929V30.4H49.22V.27h5.356l7.979,13.775,1.411,3.438h.176l1.278-3.526L72.98.27h5.312V30.4H72.428Z" transform="translate(59.266 0.326)"/><path class="a" d="M64.224,15.281a12.166,12.166,0,0,1,2.645-8.4,9.477,9.477,0,0,1,7.45-2.975,11.2,11.2,0,0,1,4.408.815,8.375,8.375,0,0,1,3.13,2.2,9.94,9.94,0,0,1,1.851,3.593,16.354,16.354,0,0,1,.617,4.651A12.232,12.232,0,0,1,81.7,23.59a9.433,9.433,0,0,1-7.428,2.953,11.175,11.175,0,0,1-4.408-.815,8.507,8.507,0,0,1-3.13-2.2,9.631,9.631,0,0,1-1.873-3.593,16.618,16.618,0,0,1-.617-4.651m5.73,0a12.827,12.827,0,0,0,.242,2.623,7.472,7.472,0,0,0,.771,2.2A3.725,3.725,0,0,0,72.335,21.5a3.813,3.813,0,0,0,1.984.485,3.637,3.637,0,0,0,3.262-1.587,9.213,9.213,0,0,0,1.058-5.025,10.116,10.116,0,0,0-.992-4.8,3.482,3.482,0,0,0-3.328-1.829,3.769,3.769,0,0,0-3.2,1.543,8.64,8.64,0,0,0-1.146,5.069" transform="translate(77.3 4.688)"/><path class="a" d="M75.09.27h5.554V10.7h.176a6.3,6.3,0,0,1,2.2-1.631,7.891,7.891,0,0,1,3.13-.6,6.965,6.965,0,0,1,5.885,2.645,13.224,13.224,0,0,1,2.028,8.067A12.387,12.387,0,0,1,91.224,28a10.227,10.227,0,0,1-7.8,3.02,25.677,25.677,0,0,1-4.915-.485,15.01,15.01,0,0,1-3.416-1.014ZM84.611,13.1a3.791,3.791,0,0,0-2.491.793,5.025,5.025,0,0,0-1.477,2.2v9.389a5,5,0,0,0,1.477.463,10.271,10.271,0,0,0,1.587.176,3.945,3.945,0,0,0,3.438-1.653,9.235,9.235,0,0,0,1.19-5.268q0-6.149-3.813-6.149" transform="translate(90.414 0.326)"/><path class="a" d="M85.342,3.064a2.821,2.821,0,0,1,.926-2.2A3.5,3.5,0,0,1,88.8.067a3.813,3.813,0,0,1,2.623.882,2.733,2.733,0,0,1,1.014,2.2,2.623,2.623,0,0,1-1.014,2.094,3.989,3.989,0,0,1-2.623.838,3.659,3.659,0,0,1-2.557-.838,2.711,2.711,0,0,1-.926-2.094m.815,6.061H91.69V30.725H86.158Z" transform="translate(102.731 0.066)"/><path class="a" d="M96.373,23.17a4.7,4.7,0,0,0,.375,2.2,1.3,1.3,0,0,0,1.168.749,5.73,5.73,0,0,0,.992,0,5.818,5.818,0,0,0,1.212-.4l.6,4.408a10.4,10.4,0,0,1-2.2.705,12.452,12.452,0,0,1-2.909.353,5.422,5.422,0,0,1-3.725-1.146,4.827,4.827,0,0,1-1.058-3.923V.27h5.554Z" transform="translate(109.267 0.326)"/><path class="a" d="M96.262,3.109a2.821,2.821,0,0,1,.926-2.2A3.482,3.482,0,0,1,99.723.024a3.813,3.813,0,0,1,2.6.97,2.733,2.733,0,0,1,1.014,2.2,2.623,2.623,0,0,1-1.014,2.094,3.989,3.989,0,0,1-2.623.838,3.637,3.637,0,0,1-2.535-.838A2.689,2.689,0,0,1,96.24,3.2m.816,6.061h5.554V30.77H97.078Z" transform="translate(115.879 0.021)"/><path class="a" d="M100.61,7.262h2.953V3.207l5.554-1.587V7.262h5.224v4.717h-5.224v8.265a8.31,8.31,0,0,0,.441,3.2,1.675,1.675,0,0,0,1.7.97,5.554,5.554,0,0,0,1.477-.176,9.72,9.72,0,0,0,1.389-.507l.992,4.408a14.238,14.238,0,0,1-2.623.771,12.629,12.629,0,0,1-3.108.4,5.6,5.6,0,0,1-4.408-1.521,7.361,7.361,0,0,1-1.389-5v-10.8h-2.953Z" transform="translate(121.141 1.951)"/><path class="a" d="M118,16.27l.771,3.35h.264l.551-3.394,3.24-12.056h5.73l-6.48,19.462q-.816,2.4-1.565,4.408a19.993,19.993,0,0,1-1.653,3.46,7.912,7.912,0,0,1-1.984,2.2,4.276,4.276,0,0,1-2.579.793,7.383,7.383,0,0,1-3.548-.727l1.014-4.408a3.35,3.35,0,0,0,1.278.264,2.821,2.821,0,0,0,1.9-.838,5.73,5.73,0,0,0,1.389-3.042L107.4,4.192h6.612Z" transform="translate(129.317 5.021)"/><path class="a" d="M62.4,26.112,64.47,21.66h3.5l-3.945,7.317v4.695H60.745V29.066L56.8,21.66h3.526Z" transform="translate(68.393 26.08)"/><path class="a" d="M65.5,27.783q0,3.482,2.424,3.482a2.072,2.072,0,0,0,1.829-.86,4.628,4.628,0,0,0,.6-2.645,4.673,4.673,0,0,0-.6-2.667,2.072,2.072,0,0,0-1.807-.86q-2.446,0-2.446,3.526m8.265,0a6.48,6.48,0,0,1-1.5,4.606,6.766,6.766,0,0,1-8.706,0,6.458,6.458,0,0,1-1.5-4.628,6.414,6.414,0,0,1,1.5-4.584,6.81,6.81,0,0,1,8.816,0,6.612,6.612,0,0,1,1.477,4.606" transform="translate(74.704 25.93)"/><path class="a" d="M78.787,21.66v7.229a4.849,4.849,0,0,1-1.344,3.659,5.312,5.312,0,0,1-3.857,1.3,5.268,5.268,0,0,1-3.857-1.278,4.761,4.761,0,0,1-1.322-3.615v-7.3h3.262v7.053a2.887,2.887,0,0,0,.485,1.851,2.05,2.05,0,0,0,2.843,0,3.064,3.064,0,0,0,.441-1.873V21.66Z" transform="translate(82.354 26.08)"/><path class="a" d="M77.758,26.817h.617q1.7,0,1.7-1.5c0-.815-.551-1.234-1.675-1.234h-.639Zm0,2.446v4.408H74.54V21.66h3.945q4.893,0,4.893,3.548a3.549,3.549,0,0,1-2.05,3.24l3.5,5.246H81.152L78.6,29.286Z" transform="translate(89.752 26.08)"/><path class="a" d="M87.254,24.248a2.072,2.072,0,0,0-1.807.948,4.584,4.584,0,0,0-.573,2.6q0,3.526,2.557,3.526a5.4,5.4,0,0,0,1.543-.22,15.012,15.012,0,0,0,1.5-.529v2.755a8.331,8.331,0,0,1-3.394.661A5.378,5.378,0,0,1,82.912,32.4a6.612,6.612,0,0,1-1.455-4.562,7.3,7.3,0,0,1,.705-3.284,5.069,5.069,0,0,1,2.028-2.2,6.127,6.127,0,0,1,3.108-.771,8.551,8.551,0,0,1,3.725.86L90.031,25a11.021,11.021,0,0,0-1.322-.529,4.7,4.7,0,0,0-1.433-.22" transform="translate(98.065 25.983)"/><rect class="a" width="3.262" height="12.012" transform="translate(191.159 47.74)"/><path class="a" d="M95.3,33.672h-3.24V24.3H89.13V21.66h9.1V24.3H95.3Z" transform="translate(107.319 26.08)"/><path class="a" d="M99.328,26.112,101.4,21.66h3.5l-3.945,7.317v4.695H97.7V29.066L93.73,21.66h3.526Z" transform="translate(112.858 26.08)"/><path class="a" d="M107.183,24.284a2.072,2.072,0,0,0-1.807.948,4.584,4.584,0,0,0-.551,2.6q0,3.46,2.645,3.46a5.4,5.4,0,0,0,1.543-.22,15.009,15.009,0,0,0,1.5-.529V33.3a8.331,8.331,0,0,1-3.394.661,5.378,5.378,0,0,1-4.166-1.587A6.612,6.612,0,0,1,101.5,27.81a7.273,7.273,0,0,1,.705-3.284,5.069,5.069,0,0,1,2.028-2.2,6.127,6.127,0,0,1,3.108-.771,8.552,8.552,0,0,1,3.725.86l-.992,2.557a11.02,11.02,0,0,0-1.322-.529,4.7,4.7,0,0,0-1.433-.22" transform="translate(122.194 25.947)"/><path class="a" d="M113.594,28.793l-.529-1.984q-.176-.661-.441-1.7c-.176-.705-.287-1.19-.331-1.5A5.7,5.7,0,0,1,112.007,25q-.287.97-.97,3.791Zm1.256,4.915-.6-2.2h-3.967l-.617,2.2H106.1l3.923-12.078h4.408L118.4,33.708Z" transform="translate(127.752 26.044)"/><path class="a" d="M115.662,26.817h.617q1.7,0,1.7-1.5c0-.815-.551-1.234-1.675-1.234h-.639Zm0,2.446v4.408H112.4V21.66h3.945q4.893,0,4.893,3.548a3.549,3.549,0,0,1-2.028,3.24l3.5,5.246h-3.7l-2.557-4.408Z" transform="translate(135.337 26.08)"/></g></svg>