<svg xmlns="http://www.w3.org/2000/svg" width="97.565" height="90.991" viewBox="0 0 112.565 103.991"><defs><style>.a{fill:#edeef4;}</style></defs><path class="a" d="M-4406.641-1383.5a7.341,7.341,0,0,1-6.365-3.528,66.541,66.541,0,0,1-9.06-33.613,66.827,66.827,0,0,1,66.8-66.851,66.554,66.554,0,0,1,45.762,18.147v17.01a55.636,55.636,0,0,0-45.762-24.015,55.752,55.752,0,0,0-55.67,55.709,55.7,55.7,0,0,0,6.432,26h95v11.142Zm38.594-22.284a14.711,14.711,0,0,1-2.061-7.428,14.855,14.855,0,0,1,14.85-14.858,14.7,14.7,0,0,1,4.012.62l17.574-22.61a5.561,5.561,0,0,1,7.814-.975,5.572,5.572,0,0,1,.973,7.816l-17.572,22.606a14.714,14.714,0,0,1,2.045,7.4,14.711,14.711,0,0,1-2.061,7.428Zm42.477-14.856a7.428,7.428,0,0,1,7.423-7.428,7.426,7.426,0,0,1,7.423,7.428,7.426,7.426,0,0,1-7.423,7.428A7.427,7.427,0,0,1-4325.57-1420.645Zm-74.227,0a7.426,7.426,0,0,1,7.423-7.428,7.428,7.428,0,0,1,7.423,7.428,7.427,7.427,0,0,1-7.423,7.428A7.426,7.426,0,0,1-4399.8-1420.645Zm11.134-26a7.427,7.427,0,0,1,7.423-7.428,7.428,7.428,0,0,1,7.423,7.428,7.427,7.427,0,0,1-7.423,7.428A7.425,7.425,0,0,1-4388.663-1446.643Zm25.979-11.142a7.428,7.428,0,0,1,7.423-7.428,7.427,7.427,0,0,1,7.423,7.428,7.425,7.425,0,0,1-7.423,7.428A7.427,7.427,0,0,1-4362.685-1457.785Z" transform="translate(4422.065 1487.495)"/></svg>